<svg width="28" height="24" viewBox="0 0 28 24" fill="none" xmlns="http://www.w3.org/2000/svg">
<g id="Group">
<path id="Vector" d="M14 23.8125C13.4312 23.8125 12.8625 23.5937 12.425 23.2C11.4187 22.325 10.5 21.5375 9.66873 20.8375C7.17498 18.6938 4.98748 16.9 3.45623 15.0625C1.66248 12.875 0.787476 10.8188 0.787476 8.5C0.787476 6.26875 1.57498 4.16875 2.97498 2.6375C4.41873 1.0625 6.43123 0.1875 8.57498 0.1875C10.1937 0.1875 11.725 0.7125 13.0375 1.71875C13.3875 1.98125 13.6937 2.24375 14 2.59375C14.3062 2.2875 14.6125 1.98125 14.9625 1.71875C16.275 0.7125 17.7625 0.1875 19.425 0.1875C21.6125 0.1875 23.5812 1.0625 25.025 2.6375C26.4687 4.16875 27.2125 6.26875 27.2125 8.5C27.2125 10.8188 26.3812 12.875 24.5437 15.0625C23.0125 16.9 20.825 18.7375 18.3312 20.8375C17.5 21.5375 16.5375 22.3687 15.5312 23.2C15.1375 23.5937 14.5687 23.8125 14 23.8125ZM8.57498 2.15625C6.95623 2.15625 5.46873 2.8125 4.37498 3.95C3.32498 5.13125 2.75623 6.75 2.75623 8.5C2.75623 10.2937 3.45623 12 4.94373 13.7937C6.38748 15.5 8.48748 17.2937 10.8937 19.35C11.725 20.05 12.6875 20.8812 13.6937 21.7562C13.8687 21.8875 14.1312 21.8875 14.3062 21.7562C15.3125 20.8812 16.275 20.0937 17.1062 19.35C19.5562 17.25 21.6562 15.5 23.0562 13.7937C24.5437 12 25.2437 10.2937 25.2437 8.5C25.2437 6.75 24.6312 5.13125 23.5812 3.99375C22.4875 2.8125 21 2.15625 19.425 2.15625C18.2437 2.15625 17.15 2.55 16.1875 3.25C15.7937 3.55625 15.4437 3.90625 15.0937 4.3C14.8312 4.60625 14.4375 4.825 14 4.825C13.5625 4.825 13.2125 4.65 12.9062 4.3C12.5562 3.90625 12.2062 3.55625 11.8125 3.25C10.8937 2.55 9.79998 2.15625 8.57498 2.15625Z" fill="#111928"/>
</g>
</svg>
