<svg width="28" height="28" viewBox="0 0 28 28" fill="none" xmlns="http://www.w3.org/2000/svg">
<path id="Vector" d="M25.3146 28H19.252C17.7711 28 16.5216 26.7977 16.5216 25.2717V20.3699C16.5216 20 16.2439 19.7225 15.8737 19.7225H12.1714C11.8011 19.7225 11.5235 20 11.5235 20.3699V25.2717C11.5235 26.7977 10.3202 28 8.793 28H2.73046C1.24953 28 0 26.7977 0 25.2717V9.68786C0 8.90173 0.370231 8.20809 1.01814 7.79191L12.8193 0.346821C13.5597 -0.115607 14.4853 -0.115607 15.1795 0.346821L26.9806 7.83815C27.6285 8.25434 27.9988 8.94798 27.9988 9.7341V25.2717C28.045 26.7514 26.7955 28 25.3146 28ZM12.1714 17.6416H15.8737C17.4009 17.6416 18.6041 18.8439 18.6041 20.3699V25.2717C18.6041 25.6416 18.8818 25.9191 19.252 25.9191H25.3146C25.6848 25.9191 25.9625 25.6416 25.9625 25.2717V9.68786C25.9625 9.64162 25.9162 9.59538 25.9162 9.54913L14.0688 2.10405C14.0225 2.0578 13.9762 2.0578 13.93 2.10405L2.17511 9.54913C2.12883 9.59538 2.08255 9.64162 2.08255 9.68786V25.2717C2.08255 25.6416 2.36023 25.9191 2.73046 25.9191H8.793C9.16323 25.9191 9.4409 25.6416 9.4409 25.2717V20.3699C9.4409 18.8902 10.6442 17.6416 12.1714 17.6416Z" fill="#111928"/>
</svg>
