<svg width="28" height="28" viewBox="0 0 28 28" fill="none" xmlns="http://www.w3.org/2000/svg">
<g id="books">
<path id="Vector" d="M25.5937 23.3187L21.875 3.93749C21.7437 3.23749 21.35 2.58124 20.7375 2.18749C20.125 1.79374 19.425 1.61874 18.6812 1.74999L15.6625 2.31874C15.225 1.39999 14.2625 0.743744 13.2125 0.743744H9.14373H5.07498C3.54373 0.787494 2.31873 2.01249 2.31873 3.49999V24.5C2.31873 25.9875 3.54373 27.2562 5.07498 27.2562H9.14373H13.2125C14.7 27.2562 15.9687 26.0312 15.9687 24.5V11.9437L18.375 24.7187C18.5062 25.4187 18.9 26.075 19.5125 26.4687C19.95 26.775 20.5187 26.95 21.0437 26.95C21.2187 26.95 21.3937 26.95 21.5687 26.9062L23.45 26.5562C24.9375 26.25 25.9 24.8062 25.5937 23.3187ZM13.9562 3.49999V8.66249H10.1062V2.75624H13.1687C13.6062 2.75624 13.9562 3.06249 13.9562 3.49999ZM8.13748 19.8625H4.28748V9.36249H8.13748V19.8625ZM10.1062 10.6312H13.9562V16.975H10.1062V10.6312ZM5.07498 2.75624H8.13748V7.43749H4.28748V3.49999C4.28748 3.06249 4.63748 2.75624 5.07498 2.75624ZM4.28748 24.5V21.8312H8.13748V25.2437H5.07498C4.63748 25.2875 4.28748 24.9375 4.28748 24.5ZM13.2125 25.2875H10.15V18.9437H14V24.5C13.9562 24.9375 13.6062 25.2875 13.2125 25.2875ZM23.0562 24.5875L21.2187 24.9375C21 24.9812 20.825 24.9375 20.65 24.8062C20.475 24.675 20.3875 24.5 20.3437 24.325L16.45 4.19999L19.075 3.71874C19.2937 3.67499 19.4687 3.71874 19.6437 3.84999C19.8187 3.98124 19.9062 4.15624 19.95 4.33124L23.6687 23.7125C23.7562 24.1062 23.4937 24.5 23.0562 24.5875Z" fill="#111928"/>
</g>
</svg>
