<svg width="28" height="28" viewBox="0 0 28 28" fill="none" xmlns="http://www.w3.org/2000/svg">
<g id="Group">
<path id="Vector" d="M13.9769 6.34052C11.4314 6.34052 9.34879 8.37688 9.34879 10.8298C9.34879 13.2827 11.4314 15.3653 13.9769 15.3653C16.5223 15.3653 18.605 13.3289 18.605 10.8761C18.605 8.42316 16.5223 6.34052 13.9769 6.34052ZM13.9769 13.2827C12.5885 13.2827 11.4314 12.2182 11.4314 10.8761C11.4314 9.5339 12.5885 8.42316 13.9769 8.42316C15.3653 8.42316 16.5223 9.48762 16.5223 10.8298C16.5223 12.1719 15.3653 13.2827 13.9769 13.2827Z" fill="#111928"/>
<path id="Vector_2" d="M13.9769 0C6.24793 0 0 6.24793 0 13.9769C0 21.7058 6.24793 28 13.9769 28C21.7058 28 28 21.7058 28 13.9769C28 6.24793 21.7058 0 13.9769 0ZM8.33058 24.4364V20.6413C8.33058 19.1603 9.53389 17.957 11.0149 17.957H17.0314C18.5124 17.957 19.7157 19.1603 19.7157 20.6413V24.4364C18.0496 25.362 16.1058 25.8711 14.0231 25.8711C11.9405 25.9174 9.99669 25.362 8.33058 24.4364ZM21.7521 23.0017V20.6413C21.7521 18.0033 19.6231 15.8744 16.9851 15.8744H10.9686C8.33058 15.8744 6.20165 18.0033 6.20165 20.6413V23.0017C3.6562 20.8264 2.03636 17.5868 2.03636 13.9769C2.08264 7.40496 7.40496 2.08264 13.9769 2.08264C20.5488 2.08264 25.9174 7.45124 25.9174 14.0231C25.9174 17.5868 24.2975 20.8264 21.7521 23.0017Z" fill="#111928"/>
</g>
</svg>
