<svg width="28" height="28" viewBox="0 0 28 28" fill="none" xmlns="http://www.w3.org/2000/svg">
<g id="Group">
<path id="Vector" d="M26.979 18.9522C26.4237 18.9522 25.9146 19.4752 25.9146 20.1551V24.8097C25.9146 25.2804 25.5907 25.6465 25.1742 25.6465H2.86912C2.45264 25.6465 2.1287 25.2804 2.1287 24.8097V20.1551C2.1287 19.5275 1.66594 18.9522 1.06435 18.9522C0.462761 18.9522 0 19.4752 0 20.1551V24.8097C0 26.5879 1.24946 28 2.82285 28H25.1742C26.7476 28 27.9971 26.5879 27.9971 24.8097V20.1551C28.0433 19.4752 27.5343 18.9522 26.979 18.9522Z" fill="#111928"/>
<path id="Vector_2" d="M7.40416 9.64296C7.68182 9.64296 7.9132 9.53836 8.14458 9.32917L13.0036 3.99464V19.4229C13.0036 20.0505 13.4663 20.6258 14.0679 20.6258C14.6232 20.6258 15.1323 20.1028 15.1323 19.4229V3.94234L19.945 9.27687C20.3615 9.74756 21.0093 9.69526 21.4258 9.27687C21.8423 8.80617 21.796 8.07398 21.4258 7.60329L14.7621 0.333696C14.3456 -0.0846984 13.6977 -0.136998 13.3275 0.333696L6.66374 7.60329C6.24726 8.07398 6.24726 8.80617 6.61746 9.27687C6.84885 9.48607 7.1265 9.64296 7.40416 9.64296Z" fill="#111928"/>
</g>
</svg>
